<svg xmlns="http://www.w3.org/2000/svg" viewBox="0 0 32 32" fill="none">
  <defs>
    <linearGradient id="fg" x1="0%" y1="0%" x2="0%" y2="100%">
      <stop offset="0%" stop-color="#f4d03f"/>
      <stop offset="100%" stop-color="#b8860b"/>
    </linearGradient>
    <linearGradient id="pk" x1="0%" y1="0%" x2="100%" y2="100%">
      <stop offset="0%" stop-color="#e91e8c"/>
      <stop offset="100%" stop-color="#ad1457"/>
    </linearGradient>
  </defs>
  <circle cx="16" cy="8" r="3" stroke="url(#fg)" stroke-width="1" fill="none"/>
  <path d="M10 12 Q4 14 2 20 Q1 26 6 28 Q12 25 14 20 Q16 14 10 12Z" fill="none" stroke="url(#fg)" stroke-width="1"/>
  <path d="M22 12 Q28 14 30 20 Q31 26 26 28 Q20 25 18 20 Q16 14 22 12Z" fill="none" stroke="url(#fg)" stroke-width="1"/>
  <path d="M16 18 C10 12 6 14 8 20 C10 25 16 28 16 28 L16 18Z" fill="url(#pk)" stroke="url(#fg)" stroke-width="1"/>
  <path d="M16 18 C22 12 26 14 24 20 C22 25 16 28 16 28 L16 18Z" fill="#2d2420" stroke="url(#fg)" stroke-width="1"/>
  <path d="M16 18 L16 28" stroke="url(#fg)" stroke-width="1.5" stroke-linecap="round"/>
</svg>
